<svg id="Layer_1" data-name="Layer 1" xmlns="http://www.w3.org/2000/svg" viewBox="0 0 512 512"><title>logo</title><g id="jhgjEH.tif"><path d="M1,246c1-8.37,1.8-16.75,2.9-25.1A242,242,0,0,1,42.81,117.15C81.12,59.73,134,22.81,201.29,7.34c13.49-3.09,27.55-3.74,41.34-5.55A32.92,32.92,0,0,0,246,1h22c5.59.63,11.17,1.33,16.77,1.87a237.22,237.22,0,0,1,94.61,29.47c66.92,37.72,109.7,94.06,127.26,169,3,13,3.68,26.54,5.46,39.83.22,1.63.6,3.23.9,4.85v22c-.63,5.58-1.32,11.16-1.89,16.75a244.15,244.15,0,0,1-41.92,115c-38.26,55.86-90.49,91.73-156.53,106.88-13,3-26.55,3.68-39.84,5.46-1.62.22-3.22.6-4.82.9H246c-5.58-.63-11.15-1.32-16.74-1.89A244.19,244.19,0,0,1,113,468.37C58,430.23,22.5,378.45,7.45,313.13c-3-13-3.74-26.54-5.55-39.84-.24-1.77-.6-3.53-.9-5.29Zm6.34,11.07c.83,138.22,111.71,249.46,249.74,249.38A249.48,249.48,0,1,0,256.87,7.5C118,7.68,8,119.62,7.34,257.07Z" transform="translate(-1 -1)"/><path d="M175.69,367.24C171.21,385.6,159.54,396,143.51,396s-27.92-10.52-32.28-29H86.5c-8.47,0-11.63-3.18-11.64-11.78q0-35,0-69.9,0-36.21,0-72.41c0-15.8,0-31.6,0-47.4,0-9,2.82-11.83,11.94-11.83q82.23,0,164.45,0c35.15,0,70.31.37,105.46-.24,9.71-.16,15.76,3.09,21,10.88,11.51,17.09,23.57,33.8,35.57,50.55a16.16,16.16,0,0,0,6,4.91c8.82,4.22,17.78,8.14,26.7,12.12,6.1,2.72,9.14,7.23,9.12,14q-.09,55,0,110c0,7.7-3.51,11.11-11.34,11.14-4.66,0-9.32,0-14.34,0-4.08,18-14.79,29.41-33.78,28.72-17.47-.64-27.41-11.67-30.85-28.48ZM371.86,209.52c0-13,.08-26.17,0-39.32-.05-5.38-4.61-10.21-9.34-10.21q-138.18,0-276.36-.06c-4,0-5.24,1.34-5.19,5.23.18,12.32.07,24.65.08,37,0,6.32.45,6.79,6.87,6.78q137.42-.12,274.82-.23C365.63,208.68,368.55,209.21,371.86,209.52ZM81.21,273.27H279.6v-58H81.21Zm0,60.7c4.69,0,8.84-.18,13,0,3.29.18,5.28-.91,7.37-3.67,20.87-27.57,63.31-27.44,84,.21a7.61,7.61,0,0,0,7,3.47c27.49-.11,55-.06,82.46-.06h4.76v-53.7H81.2Zm367.63-.41c0-9.9.37-19.56-.25-29.15-.16-2.46-2.92-5.69-5.33-6.92-9.44-4.82-19.22-9-28.85-13.42-1.46-.68-3.45-1.32-4.06-2.55-1.65-3.33-4.23-3.56-7.41-3.55-33,.08-66-.05-98.95.15-5,0-6.24-1.6-6.15-6.31q.39-21,0-42c-.09-4.62,1.31-6,5.95-6,20.66.23,41.32.1,62,.1h5.46c-2.27-6.39-5.52-9.22-12-9.11-22.65.37-45.31.14-68,.15-1.44,0-2.88.19-4.42.29V334c20.58,0,40.72-.08,60.87.08a10.19,10.19,0,0,0,8.82-3.94c22-25.55,58.53-25.76,80.61-.33C440.47,333.68,443.73,334.56,448.83,333.56ZM81,340c0,5.84.11,10.84,0,15.83-.11,3.7,1.67,5.09,5.13,5.06,7.33,0,14.67-.09,22,0,2.74.05,3.49-1,4-3.66a32.31,32.31,0,0,1,29.41-25.43,32,32,0,0,1,33,24.65c.91,4,2.61,4.44,5.95,4.44q80-.1,159.94-.05h24.08c3.79-16.85,13-28,30.91-28.82,17.21-.8,25.27,6.42,34.16,28.81,4.86,0,9.87.29,14.81-.17,1.6-.15,4.2-2.19,4.32-3.54.49-5.56.2-11.19.2-17.16a41.3,41.3,0,0,0-5.05,0c-4.54.63-7.38-1.06-10.36-4.8-19.84-24.91-55.39-24-74.66,1.52a8.71,8.71,0,0,1-6,3.12q-82.22.25-164.44,0a8.51,8.51,0,0,1-6-3.1c-20-28.08-57.8-28.06-78.08,0a9,9,0,0,1-6,3.06C92.79,340.3,87.15,340,81,340Zm223.16-68.37h99.11c-1-1.72-1.62-3-2.41-4.2-7.43-11.19-15-22.29-22.27-33.6a7.4,7.4,0,0,0-7.2-3.9c-20.64.16-41.28.08-61.92.08h-5.31ZM397,338a25.9,25.9,0,0,0-.14,51.8c13.81.08,25.77-11.79,25.84-25.65A25.85,25.85,0,0,0,397,338ZM118,363.75c0,14.42,11.67,26.27,25.67,26.08A25.9,25.9,0,0,0,169,363.91c0-14.57-11.3-26-25.71-25.89C127.38,338.13,116.74,352.37,118,363.75Zm292-141.24c0,13.19.34,25.84-.11,38.46-.37,10.16,3.85,16.52,13.16,20.25,7.06,2.84,13.84,6.36,20.78,9.51,1.56.71,3.23,1.18,5.22,1.89,0-16.11.21-31.6-.21-47.07a10.12,10.12,0,0,0-4.63-7.37C433.07,232.65,421.67,227.81,409.92,222.51ZM379,177.56l-1,.42c0,11.81.15,23.62-.07,35.43a21,21,0,0,0,3.9,13.39c7.13,10.06,13.69,20.52,21,31.58a17.48,17.48,0,0,0,.63-2.8c0-13.49.07-27,0-40.46a8.72,8.72,0,0,0-1.27-4.69C394.52,199.42,386.74,188.51,379,177.56Z" transform="translate(-1 -1)"/></g></svg>