<?xml version="1.0" encoding="utf-8"?>
<!-- Generator: Adobe Illustrator 22.0.1, SVG Export Plug-In . SVG Version: 6.00 Build 0)  -->
<svg version="1.1" id="Layer_1" xmlns="http://www.w3.org/2000/svg" xmlns:xlink="http://www.w3.org/1999/xlink" x="0px" y="0px"
	 viewBox="0 0 87.8 38.2" style="enable-background:new 0 0 87.8 38.2;" xml:space="preserve">
<g>
	<path d="M10.9,13.4c0,0.7,0.6,1.3,1.3,1.3h28c0.7,0,1.3-0.6,1.3-1.3s-0.6-1.3-1.3-1.3h-28C11.5,12.1,10.9,12.7,10.9,13.4z"/>
	<path d="M36.5,7.2c0-0.7-0.6-1.3-1.3-1.3h-28c-0.7,0-1.3,0.6-1.3,1.3s0.6,1.3,1.3,1.3h28C35.9,8.5,36.5,7.9,36.5,7.2z"/>
	<path d="M4,5.9H1.3C0.6,5.9,0,6.5,0,7.2s0.6,1.3,1.3,1.3H4c0.7,0,1.3-0.6,1.3-1.3S4.7,5.9,4,5.9z"/>
	<path d="M30.5,20.9c0.7,0,1.3-0.6,1.3-1.3s-0.6-1.3-1.3-1.3H15.1c-0.7,0-1.3,0.6-1.3,1.3s0.6,1.3,1.3,1.3H30.5z"/>
	<path d="M11.6,18.3H8.8c-0.7,0-1.3,0.6-1.3,1.3s0.6,1.3,1.3,1.3h2.7c0.7,0,1.3-0.6,1.3-1.3S12.3,18.3,11.6,18.3z"/>
	<path d="M85.3,20.2L84.9,20c0,0,0,0,0,0l-0.2-0.1l-0.2-0.1c0,0,0,0,0,0c-0.4-0.2-1.4-0.8-1.9-1.3c-0.3-0.3-0.5-0.7-0.6-1l0-0.1
		c-0.1-0.2-5.8-9.4-5.8-9.4c0-0.3-0.2-0.6-0.4-0.9c-1.1-2.1-2.7-2.3-4-2.3h-6.2c0,0,0,0,0,0h-0.4l0.4-2.3c0-1.3-1.1-2.4-2.4-2.4
		h-0.4c0,0,0,0,0,0H58l0,0c0,0,0,0,0,0H16.2c-0.7,0-1.3,0.6-1.3,1.3s0.6,1.3,1.3,1.3h41.7c0,0,0,0,0.1,0h4.1
		c0.4,0.1,0.8,0.4,0.8,0.9c0,0,0,0,0,0l-0.4,1.7l-5.8,25.2c0,0.5-0.4,0.8-0.9,0.8h0c0,0,0,0,0,0v0H31.8c0-0.2,0-0.5,0-0.7
		c-0.4-1.5-1.3-2.8-2.6-3.6c-0.8-0.5-1.7-0.7-2.6-0.7c-2.1,0-4.2,1.2-5.3,3.2c-0.3,0.5-0.5,1.1-0.7,1.7h-2.4v0c0,0,0,0,0,0h0
		c-0.5,0-0.7-0.4-0.7-0.9c0,0,0,0,0,0l1.5-6c0-0.3-0.2-0.5-0.5-0.5h-1.6c-0.3,0-0.5,0.2-0.5,0.5L14.6,31c0,0-1.2,2.8,2.6,2.8h3.3
		c0,0,0,0.1,0,0.1c0.4,1.5,1.3,2.8,2.6,3.6c0.8,0.5,1.7,0.7,2.6,0.7c2.1,0,4.2-1.2,5.3-3.2c0.2-0.4,0.4-0.8,0.5-1.2h25.6h1.6h8.6
		c0,0,0,0.1,0,0.1c0.4,1.5,1.3,2.8,2.6,3.6c0.8,0.5,1.7,0.7,2.6,0.7c2.1,0,4.2-1.2,5.3-3.2c0.2-0.4,0.4-0.8,0.5-1.2l4.7,0
		c2.2,0,2.5-1.4,2.9-3.2l1.5-6.6C88.2,22,86.8,20.9,85.3,20.2z M28.9,33.8c-0.7,1.2-1.8,1.9-3,1.9c-0.5,0-1-0.1-1.4-0.4
		c-0.7-0.4-1.2-1.1-1.4-1.9c-0.2-0.9-0.1-1.8,0.4-2.7c0.7-1.2,1.8-1.9,3-1.9c0.5,0,1,0.1,1.4,0.4c0.7,0.4,1.2,1.1,1.4,1.9
		C29.5,32,29.4,32.9,28.9,33.8z M75.8,33.8c-0.7,1.2-1.8,1.9-3,1.9c-0.5,0-1-0.1-1.4-0.4c-0.7-0.4-1.2-1.1-1.4-1.9
		c-0.2-0.9-0.1-1.8,0.4-2.7c0.7-1.2,1.8-1.9,3-1.9c0.5,0,1,0.1,1.4,0.4c0.7,0.4,1.2,1.1,1.4,1.9C76.4,32,76.3,32.9,75.8,33.8z
		 M84.9,24.3c-0.2,0.8-1.3,5.3-1.3,5.3c0,0-0.1,1.6-1.5,1.6h-3.2c0-0.2-0.1-0.4-0.1-0.6C78.3,29,77.4,27.7,76,27
		c-0.8-0.5-1.7-0.7-2.6-0.7c-2.1,0-4.2,1.2-5.3,3.2c-0.3,0.5-0.5,1.1-0.7,1.7h-7.2c0,0-1.2,0.2-1-1c0,0,0,0,0,0l5.1-22c0,0,0,0,0,0
		c0-0.5,0.4-1,0.9-1c0,0,0.8,0,3.3,0v0h3.5c0.6,0,0.9,0.3,1,0.6L73.3,8c0,0,0,0.1,0,0.1l0,0l6.1,11c0,0,0.7,1.5,2,2.1
		c0.4,0.2,2.7,1.3,2.7,1.3C85.4,23,84.9,24.3,84.9,24.3z"/>
</g>
</svg>
