<?xml version="1.0" standalone="no"?>
<!DOCTYPE svg PUBLIC "-//W3C//DTD SVG 20010904//EN"
 "http://www.w3.org/TR/2001/REC-SVG-20010904/DTD/svg10.dtd">
<svg version="1.0" xmlns="http://www.w3.org/2000/svg"
 width="1408.000000pt" height="1408.000000pt" viewBox="0 0 1408.000000 1408.000000"
 preserveAspectRatio="xMidYMid meet">
<metadata>
Created by potrace 1.11, written by Peter Selinger 2001-2013
</metadata>
<g transform="translate(0.000000,1408.000000) scale(0.100000,-0.100000)"
fill="#000000" stroke="none">
<path d="M2553 10078 c-2 -5 -11 -8 -19 -8 -8 0 -20 -5 -27 -10 -37 -32 -54
-47 -71 -67 -19 -23 -48 -127 -38 -138 3 -3 7 -15 9 -27 9 -59 91 -143 151
-156 10 -2 1681 -4 3715 -4 3588 -1 3699 -2 3736 -20 23 -11 46 -34 60 -59 22
-38 22 -44 11 -107 -7 -37 -15 -71 -18 -77 -3 -5 -7 -16 -8 -25 -1 -8 -9 -46
-18 -85 -10 -38 -20 -81 -22 -95 -3 -14 -7 -32 -10 -40 -3 -8 -8 -25 -10 -37
-10 -57 -13 -72 -29 -138 -9 -38 -19 -79 -21 -90 -4 -19 -28 -124 -41 -175 -3
-14 -8 -34 -10 -45 -2 -11 -8 -36 -13 -55 -5 -19 -12 -50 -15 -69 -3 -19 -8
-37 -10 -41 -2 -4 -7 -22 -10 -41 -3 -19 -15 -68 -25 -109 -10 -41 -21 -86
-24 -100 -2 -14 -12 -56 -21 -95 -9 -38 -19 -81 -21 -95 -3 -14 -21 -92 -41
-175 -19 -82 -36 -157 -38 -165 -2 -8 -8 -35 -14 -60 -5 -25 -12 -56 -15 -70
-3 -14 -12 -52 -20 -86 -8 -34 -17 -72 -20 -85 -2 -13 -13 -62 -25 -109 -36
-151 -91 -394 -97 -430 -3 -19 -10 -43 -15 -52 -5 -9 -8 -21 -7 -25 1 -6 -20
-104 -37 -173 -14 -52 -73 -308 -79 -340 -3 -14 -8 -36 -11 -50 -3 -14 -8 -35
-11 -47 -2 -12 -15 -69 -29 -125 -13 -57 -26 -114 -29 -128 -3 -14 -19 -83
-36 -155 -17 -71 -35 -148 -40 -170 -4 -22 -11 -51 -14 -65 -4 -14 -9 -38 -12
-54 -2 -16 -7 -33 -10 -37 -3 -5 -7 -21 -9 -36 -2 -16 -14 -68 -25 -118 -12
-49 -24 -103 -26 -120 -8 -45 -31 -75 -73 -93 -34 -16 -185 -17 -1966 -16
-1062 1 -1935 2 -1940 3 -6 1 -10 29 -11 64 0 34 -4 71 -8 82 -5 11 -10 27
-12 35 -9 46 -91 200 -146 275 -93 125 -246 243 -381 293 -31 12 -60 22 -65
22 -4 1 -16 3 -27 6 -46 10 -95 15 -176 18 -73 2 -121 -3 -251 -27 -10 -2 -21
-6 -24 -10 -4 -4 -17 -7 -29 -7 -11 0 -25 -4 -31 -9 -5 -5 -26 -14 -46 -20
-41 -13 -177 -93 -223 -131 -82 -67 -186 -183 -232 -258 -48 -78 -69 -124
-123 -264 l-22 -57 -213 2 c-210 2 -214 2 -239 26 -36 34 -47 98 -29 169 8 31
17 64 18 72 2 8 4 15 5 15 1 0 3 7 5 15 3 17 44 186 50 210 4 14 21 82 30 120
2 8 16 62 30 120 29 116 33 132 39 158 2 9 9 37 16 62 7 25 14 52 15 61 2 9 8
32 13 52 7 24 6 42 -2 58 -21 42 -50 49 -213 46 -172 -3 -184 -7 -197 -82 -4
-22 -14 -61 -22 -86 -8 -25 -16 -55 -18 -66 -3 -12 -39 -149 -81 -305 -42
-155 -79 -290 -81 -298 -3 -16 -59 -221 -93 -348 -23 -82 -22 -174 3 -232 27
-65 117 -137 194 -155 9 -3 37 -10 62 -16 27 -7 168 -12 360 -14 373 -3 340
-2 340 -20 0 -46 74 -211 136 -304 51 -75 157 -187 218 -228 22 -15 43 -31 46
-34 14 -16 164 -80 225 -95 76 -20 285 -26 363 -11 303 57 578 267 708 542 16
33 34 63 39 67 6 4 7 8 4 8 -4 0 -1 17 6 37 l13 38 2866 0 2866 0 20 -66 c44
-141 133 -289 236 -393 60 -60 219 -176 242 -176 5 0 23 -7 41 -16 64 -32 199
-53 321 -49 122 3 143 6 230 32 30 9 60 17 66 19 29 5 181 88 237 127 101 72
229 210 274 294 18 34 45 86 56 108 6 11 18 42 28 70 l17 50 424 1 c456 0 479
3 572 56 94 54 179 219 211 408 2 14 7 34 9 45 22 87 58 246 62 275 3 19 9 39
12 45 3 5 7 18 8 30 2 11 17 81 34 155 17 74 33 144 36 155 2 11 13 62 25 113
11 52 22 101 24 110 2 9 4 19 5 22 1 3 3 10 4 15 4 24 20 87 42 166 50 176 21
307 -91 414 -81 76 -85 79 -275 177 -142 74 -192 101 -205 111 -5 4 -39 26
-75 49 -63 41 -202 170 -198 185 1 10 -27 80 -47 113 -8 14 -20 37 -26 53 -6
15 -15 27 -20 27 -5 0 -9 5 -9 11 0 7 -16 36 -35 65 -19 29 -35 55 -35 59 0 3
-5 11 -10 18 -6 7 -49 75 -97 152 -94 154 -123 200 -237 383 -42 68 -76 125
-76 127 0 2 -21 37 -48 77 -26 41 -52 83 -59 93 -6 11 -67 110 -136 221 -69
111 -128 216 -132 235 -4 19 -12 41 -19 49 -11 15 -29 45 -50 85 -84 156 -226
275 -379 316 -106 28 -105 28 -734 29 -432 1 -573 4 -573 13 0 7 5 31 10 55 6
24 13 62 15 85 3 23 8 49 10 57 3 8 7 33 10 55 3 22 9 58 14 80 9 51 -11 142
-46 208 -43 78 -130 150 -216 178 l-72 23 -3813 1 c-2098 0 -3816 -3 -3819 -7z
m9077 -1147 c45 -24 120 -114 164 -196 24 -44 52 -96 63 -115 11 -19 35 -62
53 -95 18 -33 42 -76 53 -95 11 -19 56 -100 100 -180 113 -205 135 -246 168
-302 16 -27 29 -50 29 -52 0 -2 29 -55 63 -117 66 -119 91 -163 147 -264 18
-33 53 -96 78 -140 25 -44 55 -98 67 -120 27 -50 73 -133 116 -211 103 -187
198 -278 383 -368 72 -35 138 -67 146 -70 8 -3 22 -10 30 -15 8 -5 73 -38 145
-73 110 -53 134 -69 159 -106 24 -34 30 -54 32 -103 1 -33 -2 -74 -7 -92 -6
-18 -12 -39 -14 -48 -18 -83 -37 -159 -45 -184 -5 -16 -17 -61 -25 -100 -9
-38 -20 -88 -26 -110 -12 -51 -20 -86 -24 -105 -2 -8 -4 -15 -5 -15 -1 0 -3
-7 -5 -15 -1 -8 -19 -80 -38 -160 -19 -80 -38 -158 -40 -175 -7 -42 -40 -104
-75 -142 -52 -56 -86 -61 -391 -59 l-274 1 -19 75 c-10 41 -22 85 -25 98 -3
12 -10 22 -16 22 -6 0 -8 3 -4 6 7 8 -83 184 -94 184 -5 0 -9 6 -9 13 0 6 -11
26 -25 42 -147 176 -355 300 -555 331 -62 10 -204 10 -265 0 -78 -12 -90 -14
-90 -16 0 -1 -7 -3 -15 -5 -45 -9 -151 -51 -206 -80 -121 -65 -118 -63 -247
-191 -101 -99 -176 -213 -223 -338 -14 -39 -33 -87 -41 -107 l-15 -37 -622 2
c-570 1 -623 2 -645 18 -43 31 -55 85 -37 168 3 14 22 95 42 180 19 85 37 162
39 170 2 8 12 54 24 102 24 102 31 136 36 163 2 11 4 20 5 20 2 0 4 9 5 20 1
11 10 49 20 85 9 36 19 76 21 88 3 13 18 81 35 150 16 70 36 157 44 194 8 37
26 113 40 170 15 57 28 114 30 128 2 14 15 72 30 130 14 58 27 114 29 125 2
11 4 20 6 20 1 0 3 9 4 20 3 26 37 176 44 195 6 17 5 13 23 95 7 33 14 65 15
70 1 6 12 53 23 105 12 52 28 118 36 145 7 28 16 64 18 80 3 17 9 48 15 70 6
22 13 51 15 65 3 14 10 43 15 65 6 22 13 51 16 65 3 14 10 45 17 70 12 52 17
73 25 114 2 16 7 32 9 36 2 4 7 21 10 38 3 17 14 70 26 119 22 90 26 108 34
144 2 11 6 28 9 37 3 9 8 29 11 45 3 15 7 39 10 55 3 15 9 36 12 47 8 24 11
40 17 81 8 56 42 110 84 131 38 18 65 19 623 18 472 0 589 -3 609 -14z m-7256
-3461 c26 -6 73 -27 104 -47 60 -37 152 -124 152 -142 0 -6 3 -11 8 -11 7 0
15 -16 46 -91 22 -54 28 -85 31 -179 8 -197 -78 -376 -243 -508 -30 -24 -125
-81 -137 -82 -3 0 -10 -2 -17 -4 -7 -2 -29 -8 -49 -13 -19 -6 -75 -9 -125 -8
-72 2 -101 8 -151 30 -35 15 -63 32 -63 36 0 5 -6 9 -13 9 -25 0 -116 97 -151
161 -43 79 -67 169 -68 257 -1 72 18 179 34 200 6 6 8 12 4 12 -3 0 5 23 20
51 64 128 169 236 284 294 92 47 222 60 334 35z m7490 6 c50 -8 166 -63 166
-78 0 -5 5 -8 10 -8 32 0 133 -136 162 -218 114 -322 -92 -702 -422 -780 -87
-20 -273 4 -313 41 -6 7 -31 25 -55 41 -37 25 -62 50 -113 114 -22 27 -63 129
-75 186 -24 114 1 294 52 370 9 15 12 26 8 26 -5 0 -4 4 1 8 6 4 23 27 40 50
130 192 328 284 539 248z"/>
<path d="M182 9148 c-102 -17 -180 -118 -169 -219 9 -79 58 -144 131 -174 33
-14 81 -17 292 -17 279 0 307 6 366 68 67 71 72 198 12 263 -13 14 -24 29 -24
33 0 3 -21 16 -47 29 -45 22 -59 23 -283 24 -129 0 -254 -3 -278 -7z"/>
<path d="M1140 9152 c-45 -6 -108 -41 -134 -75 -52 -68 -62 -123 -36 -202 11
-34 97 -128 110 -120 3 2 18 -2 33 -10 16 -8 29 -10 33 -4 3 5 10 7 15 3 6 -3
1021 -6 2257 -6 1689 0 2258 3 2290 12 50 13 123 80 138 126 10 28 11 101 2
135 -11 44 -62 99 -117 126 -34 16 -160 17 -2301 18 -1246 0 -2276 -1 -2290
-3z"/>
<path d="M1904 8151 c-178 -72 -197 -284 -34 -379 l45 -27 2295 0 2295 0 35
22 c58 36 78 57 100 104 33 74 22 154 -32 215 -63 72 -91 77 -383 75 -121 -1
-224 -1 -230 -1 -5 0 -219 0 -475 0 -256 0 -473 0 -482 0 -10 0 -227 0 -483 0
-256 0 -471 0 -477 0 -7 0 -78 0 -158 0 -80 0 -153 0 -162 0 -10 0 -227 0
-483 0 -256 0 -471 0 -477 0 -7 0 -78 0 -158 0 -80 0 -152 0 -160 0 -8 0 -124
1 -258 1 -133 1 -245 -1 -249 -4 -3 -4 -11 -3 -17 2 -7 5 -27 2 -52 -8z"/>
<path d="M1353 7153 c-44 -15 -113 -73 -113 -95 0 -8 -5 -19 -12 -26 -7 -7
-12 -38 -12 -71 0 -82 39 -146 111 -182 l52 -27 251 0 c158 0 265 4 288 11 44
14 114 81 130 125 6 17 9 57 8 90 -3 72 -41 135 -101 166 -37 20 -57 21 -300
22 -201 1 -269 -2 -302 -13z"/>
<path d="M2345 7147 c-77 -38 -118 -103 -119 -187 0 -86 45 -154 125 -189 43
-19 80 -20 1316 -19 l1273 0 49 24 c110 55 149 198 80 295 -30 43 -37 50 -79
74 -34 20 -54 20 -1320 21 -1261 1 -1286 1 -1325 -19z"/>
</g>
</svg>
